HIERARCHY
ROOT root
{
	OFFSET 0.000000 0.000000 0.000000
	CHANNELS 6 Xposition Yposition Zposition Zrotation Yrotation Xrotation
	JOINT lhip
	{
		OFFSET 0.058581 -0.082280 -0.017664
		CHANNELS 3 Zrotation Yrotation Xrotation
		JOINT lknee
		{
			OFFSET 0.043451 -0.386469 0.008037
			CHANNELS 3 Zrotation Yrotation Xrotation
			JOINT lankle
			{
				OFFSET -0.014790 -0.426874 -0.037428
				CHANNELS 3 Zrotation Yrotation Xrotation
				JOINT ltoe
				{
					OFFSET 0.041054 -0.060286 0.122042
					CHANNELS 3 Zrotation Yrotation Xrotation
					End Site
					{
						OFFSET 0.000000 0.000000 0.000000
					}
				}
			}
		}
	}
	JOINT rhip
	{
		OFFSET -0.060310 -0.090513 -0.013543
		CHANNELS 3 Zrotation Yrotation Xrotation
		JOINT rknee
		{
			OFFSET -0.043257 -0.383688 -0.004843
			CHANNELS 3 Zrotation Yrotation Xrotation
			JOINT rankle
			{
				OFFSET 0.019056 -0.420046 -0.034562
				CHANNELS 3 Zrotation Yrotation Xrotation
				JOINT rtoe
				{
					OFFSET -0.034840 -0.062106 0.130323
					CHANNELS 3 Zrotation Yrotation Xrotation
					End Site
					{
						OFFSET 0.000000 0.000000 0.000000
					}
				}
			}
		}
	}
	JOINT lowerback
	{
		OFFSET 0.004439 0.124404 -0.038385
		CHANNELS 3 Zrotation Yrotation Xrotation
		JOINT upperback
		{
			OFFSET 0.004488 0.137956 0.026820
			CHANNELS 3 Zrotation Yrotation Xrotation
			JOINT chest
			{
				OFFSET -0.002265 0.056032 0.002855
				CHANNELS 3 Zrotation Yrotation Xrotation
				JOINT lowerneck
				{
					OFFSET -0.013390 0.211636 -0.033468
					CHANNELS 3 Zrotation Yrotation Xrotation
					JOINT upperneck
					{
						OFFSET 0.010113 0.088937 0.050410
						CHANNELS 3 Zrotation Yrotation Xrotation
						End Site
						{
							OFFSET 0.000000 0.000000 0.000000
						}
					}
				}
				JOINT lclavicle
				{
					OFFSET 0.071702 0.114000 -0.018898
					CHANNELS 3 Zrotation Yrotation Xrotation
					JOINT lshoulder
					{
						OFFSET 0.122921 0.045205 -0.019046
						CHANNELS 3 Zrotation Yrotation Xrotation
						JOINT lelbow
						{
							OFFSET 0.255332 -0.015649 -0.022946
							CHANNELS 3 Zrotation Yrotation Xrotation
							JOINT lwrist
							{
								OFFSET 0.265709 0.012698 -0.007375
								CHANNELS 3 Zrotation Yrotation Xrotation
								End Site
								{
									OFFSET 0.000000 0.000000 0.000000
								}
							}
						}
					}
				}
				JOINT rclavicle
				{
					OFFSET -0.082954 0.112472 -0.023707
					CHANNELS 3 Zrotation Yrotation Xrotation
					JOINT rshoulder
					{
						OFFSET -0.113228 0.046853 -0.008472
						CHANNELS 3 Zrotation Yrotation Xrotation
						JOINT relbow
						{
							OFFSET -0.260127 -0.014369 -0.031269
							CHANNELS 3 Zrotation Yrotation Xrotation
							JOINT rwrist
							{
								OFFSET -0.269108 0.006794 -0.006027
								CHANNELS 3 Zrotation Yrotation Xrotation
								End Site
								{
									OFFSET 0.000000 0.000000 0.000000
								}
							}
						}
					}
				}
			}
		}
	}
}
MOTION
Frames: 11
Frame Time: 0.033333
-0.031152 -0.814769 0.986909 -176.099729 -0.369947 87.796859 6.536398 3.162696 0.495139 -2.038068 -4.590806 0.891913 0.501276 7.867251 -5.586172 0.000000 -0.000000 0.000000 -0.950074 -4.810882 1.295827 1.336845 -3.312729 6.560801 -1.505880 -5.985682 -11.581973 0.000000 -0.000000 0.000000 1.556356 1.945860 7.354114 1.915073 -3.857720 9.042696 0.560892 0.482963 -7.170018 -3.563807 3.877612 6.041536 2.054966 1.083647 -1.658549 -26.993944 -10.394711 1.133771 -61.037232 -5.093589 16.229616 10.553392 -21.176198 -9.453546 -0.977130 -11.051254 0.764262 26.358102 13.345883 8.553132 51.887815 3.467165 12.623862 -16.275381 17.483291 -9.550696 11.236197 12.486703 -1.648617 
-0.035985 -0.814271 0.987663 -176.445081 -0.145954 87.742605 6.444408 3.105496 0.252906 -2.115693 -4.850820 1.482415 0.721433 8.583475 -5.839288 0.000000 -0.000000 0.000000 -0.977566 -4.982312 1.612865 1.302087 -2.470181 5.653048 -1.093919 -6.228662 -11.320273 0.000000 -0.000000 0.000000 2.530140 2.154743 7.964402 1.524193 -3.591833 8.288959 -0.224984 0.481455 -7.259727 -4.070652 2.814608 5.516627 2.885538 2.129479 -1.349162 -27.157957 -10.024561 0.514571 -60.052916 -4.858646 16.658607 9.712073 -20.891602 -8.886105 0.351457 -10.639493 0.918019 24.600272 11.191923 6.108713 52.954349 3.978912 10.737779 -12.172358 16.564173 -6.780589 11.044742 12.098113 1.506924 
-0.040636 -0.814306 0.988196 -176.834822 0.095370 87.783203 6.351784 3.153491 0.076674 -2.076097 -4.605688 1.819495 0.925412 8.720938 -6.085034 0.000000 -0.000000 0.000000 -0.999335 -4.935288 1.842669 1.299605 -2.341055 4.944464 -0.955665 -6.181961 -10.924756 0.000000 -0.000000 0.000000 2.720235 2.456711 8.365023 1.490067 -3.333244 7.674545 -0.253315 0.576566 -7.318661 -3.929683 2.448448 5.335366 3.127894 2.141147 -1.469778 -27.177016 -9.863833 0.395474 -60.077474 -4.875595 16.755786 9.804621 -20.394330 -9.038990 0.060666 -10.749766 1.097158 24.300587 10.923026 5.629705 53.379394 2.788357 11.019100 -12.363412 16.417840 -6.412592 11.309136 12.104142 1.654341 
-0.046819 -0.814665 0.989068 -177.407137 0.251858 87.949551 6.088072 3.359991 -0.014742 -2.080676 -4.300043 1.820876 1.062958 8.863630 -6.244223 0.000000 -0.000000 0.000000 -1.187496 -5.027308 1.938459 1.300371 -2.552227 4.030259 -0.470370 -6.116514 -10.602885 0.000000 -0.000000 0.000000 2.515320 2.736727 8.633788 1.454734 -3.128043 7.023472 -0.108425 0.670094 -7.319379 -3.850511 2.251134 4.728004 3.204764 1.988407 -1.253095 -26.787729 -9.633857 0.441460 -60.369615 -4.846702 16.705109 9.859747 -19.636600 -9.646283 0.084623 -10.753424 0.737721 24.007392 11.063805 5.073481 53.986601 1.764818 11.358977 -12.502440 15.577613 -6.294759 11.410593 12.019595 1.931802 
-0.048749 -0.815133 0.989302 -177.512580 0.298156 88.135344 6.027160 3.369329 -0.195832 -2.136481 -4.215059 1.758477 1.110143 8.904304 -6.195624 0.000000 -0.000000 0.000000 -1.197338 -4.989607 1.759590 1.241663 -2.485777 3.795534 -0.387400 -6.195085 -10.406321 0.000000 -0.000000 0.000000 2.411552 2.772170 8.580792 1.470779 -3.119830 6.843073 -0.089759 0.695148 -7.270318 -3.849503 2.309041 4.221833 3.161559 1.934417 -0.845496 -26.632263 -9.549572 0.412629 -60.466426 -4.906340 16.763650 9.861520 -19.219606 -9.959360 0.109322 -10.721244 0.538330 24.037723 11.116743 4.849386 54.108885 1.561904 11.539367 -12.593015 15.245353 -6.414121 11.477921 11.918542 1.896589 
-0.052540 -0.816239 0.989682 -177.689592 0.361750 88.504161 5.867029 3.456579 -0.551462 -2.224209 -4.066635 1.578721 1.149244 8.926486 -6.083465 0.000000 -0.000000 0.000000 -1.301005 -5.035704 1.198463 1.149244 -2.542468 3.881548 -0.303536 -6.060704 -10.259782 0.000000 -0.000000 0.000000 2.235908 2.853233 8.459391 1.551262 -3.189318 6.673913 -0.051034 0.758527 -7.449445 -3.898203 2.192053 3.965974 3.232359 1.769903 -0.682444 -26.435124 -9.652135 0.597778 -60.459090 -4.869140 16.888736 9.651940 -18.462506 -10.759465 0.269928 -10.658437 0.307102 23.935495 11.470983 4.389633 54.460081 0.965529 11.701977 -12.729061 14.735873 -6.903443 11.515966 11.968602 1.658130 
-0.056117 -0.817156 0.990008 -177.794447 0.402517 88.768089 5.640371 3.511516 -0.780586 -2.202302 -3.978403 1.416883 1.272815 8.942418 -6.039926 0.000000 -0.000000 0.000000 -1.397422 -4.941338 0.739524 1.050975 -2.524978 3.973674 -0.179938 -6.118575 -10.119429 0.000000 -0.000000 0.000000 2.063249 2.890773 8.322171 1.553073 -3.286761 6.634334 -0.006307 0.619520 -7.487053 -3.914123 2.195336 3.672335 3.230375 1.708412 -0.914139 -26.191301 -9.834405 0.706279 -60.462544 -4.740894 16.916044 9.545373 -17.673985 -10.911695 0.059934 -10.581473 0.379641 24.092456 11.645012 4.471627 54.599474 1.230663 11.712659 -12.859503 14.555254 -7.341648 11.449556 12.033327 1.547760 
-0.059442 -0.817633 0.990135 -177.906930 0.469482 88.869540 5.517888 3.537660 -0.691121 -2.173044 -4.100740 1.080716 1.502332 8.931482 -5.824471 0.000000 -0.000000 0.000000 -1.455642 -4.806977 0.468754 0.925011 -2.419600 4.127108 -0.055138 -6.233535 -10.081781 0.000000 -0.000000 0.000000 1.879663 2.890348 8.476271 1.623149 -3.347085 6.387595 0.083223 0.505715 -7.421324 -3.774235 2.172637 3.242848 3.338231 1.813100 -0.583688 -26.048501 -9.965388 0.806467 -60.439336 -4.537256 17.045646 9.419467 -17.095867 -10.673711 0.338926 -10.473638 0.409341 24.275677 11.662212 4.418910 54.605264 1.363983 11.903335 -13.042326 15.096642 -7.589582 11.127590 12.058355 1.416765 
-0.062509 -0.817744 0.990126 -178.027539 0.612279 88.927170 5.504815 3.602128 -0.518985 -2.227702 -4.036979 0.648148 1.596823 8.943731 -5.691492 0.000000 -0.000000 0.000000 -1.429162 -4.654933 0.241910 0.816667 -2.352111 4.364008 0.004081 -6.284999 -10.091911 0.000000 -0.000000 0.000000 1.660389 2.703024 8.876992 1.793157 -3.427946 5.445382 0.287904 0.570074 -6.972728 -3.606836 2.237012 2.916888 3.229815 1.906209 -0.149546 -25.913974 -9.848482 0.687708 -60.660188 -4.142423 17.217110 9.397266 -16.510299 -10.205213 0.342646 -10.356213 0.420299 24.188500 11.627880 4.463129 54.711250 1.464330 12.218310 -13.176968 16.128075 -7.512205 10.969213 12.194184 1.110414 
-0.065143 -0.817951 0.990213 -178.168999 0.702124 89.062178 5.390906 3.663654 -0.563404 -2.234454 -3.791492 0.442731 1.664728 9.022651 -5.840155 0.000000 -0.000000 0.000000 -1.495739 -4.514906 -0.143793 0.784698 -2.314708 4.812828 0.060317 -6.255536 -10.051712 0.000000 -0.000000 0.000000 1.527227 2.666375 8.753789 1.877550 -3.490020 5.580168 0.384056 0.517866 -6.990062 -3.446389 2.394359 2.637869 3.194211 1.828811 -0.128047 -25.864297 -9.909257 0.676422 -60.700002 -3.962671 17.086928 9.275566 -15.994991 -10.352309 0.105455 -10.215874 0.524019 24.369272 11.619766 4.477904 54.666358 1.686465 12.231056 -13.345657 17.288497 -7.635282 10.933339 12.353983 1.253729 
-0.067434 -0.818283 0.990297 -178.295342 0.701919 89.268120 5.241984 3.639586 -0.714707 -2.171958 -3.906080 0.302326 1.878436 8.967118 -5.553127 0.000000 -0.000000 0.000000 -1.537674 -4.350976 -0.635158 0.626686 -2.236653 5.181547 0.093431 -6.323267 -10.004950 0.000000 -0.000000 0.000000 1.277320 2.683775 8.593178 1.975948 -3.575354 5.651215 0.443577 0.448970 -7.094164 -3.330758 2.443507 2.517970 3.252384 1.862954 -0.020612 -25.709274 -9.817717 0.567381 -60.839286 -3.791637 17.093001 9.158390 -15.415126 -10.591425 -0.061455 -10.082618 0.560029 24.465316 11.506220 4.335168 54.699158 1.935208 12.352681 -13.253742 18.398587 -7.705158 10.935435 12.563760 1.546232 
